<?xml version="1.0" encoding="UTF-8" standalone="no"?>
<svg
   id="Layer_1"
   data-name="Layer 1"
   viewBox="0 0 169.73 82.91"
   version="1.1"
   sodipodi:docname="IAF-neuron.svg"
   inkscape:version="1.1.2 (b8e25be8, 2022-02-05)"
   xmlns:inkscape="http://www.inkscape.org/namespaces/inkscape"
   xmlns:sodipodi="http://sodipodi.sourceforge.net/DTD/sodipodi-0.dtd"
   xmlns="http://www.w3.org/2000/svg"
   xmlns:svg="http://www.w3.org/2000/svg"
   xmlns:rdf="http://www.w3.org/1999/02/22-rdf-syntax-ns#"
   xmlns:cc="http://creativecommons.org/ns#"
   xmlns:dc="http://purl.org/dc/elements/1.1/">
  <sodipodi:namedview
     id="namedview235"
     pagecolor="#ffffff"
     bordercolor="#cccccc"
     borderopacity="1"
     inkscape:pageshadow="0"
     inkscape:pageopacity="1"
     inkscape:pagecheckerboard="0"
     showgrid="true"
     inkscape:zoom="3.4562923"
     inkscape:cx="96.780009"
     inkscape:cy="22.567536"
     inkscape:window-width="1296"
     inkscape:window-height="832"
     inkscape:window-x="140"
     inkscape:window-y="40"
     inkscape:window-maximized="0"
     inkscape:current-layer="Layer_1">
    <inkscape:grid
       type="xygrid"
       id="grid508" />
  </sodipodi:namedview>
  <defs
     id="defs4">
    <style
       id="style2">.cls-1{fill:#fff;}.cls-1,.cls-3,.cls-4,.cls-5,.cls-9{stroke:#231f20;}.cls-1,.cls-3,.cls-4,.cls-5,.cls-7,.cls-9{stroke-miterlimit:10;}.cls-2{fill:#231f20;}.cls-3,.cls-4,.cls-5,.cls-6,.cls-7,.cls-8,.cls-9{fill:none;}.cls-4,.cls-5,.cls-7,.cls-9{stroke-width:0.5px;}.cls-5{stroke-dasharray:0.99 0.99;}.cls-6{stroke:#f57f20;}.cls-6,.cls-8{stroke-linecap:square;stroke-linejoin:round;}.cls-7{stroke:#52a7dd;}.cls-8{stroke:#7d277d;}.cls-9{stroke-dasharray:1;}</style>
  </defs>
  <title
     id="title6">LIF-neuron</title>
  <circle
     class="cls-1"
     cx="88.74"
     cy="46.21"
     r="12.16"
     id="circle8"
     inkscape:export-filename="/Users/sadique/Work/git/snn-workshop-amld-2022/1. Introduction to SNNs/iaf.png"
     inkscape:export-xdpi="300"
     inkscape:export-ydpi="300" />
  <path
     class="cls-2"
     d="M99.59,52.07l-1-8.09h1l.59,5.18c.09.83.14,1.3.15,1.83h0a17.39,17.39,0,0,1,.89-2L103.83,44h1.11l-4.26,8.09Z"
     transform="translate(-12.49 -1.95)"
     id="path10"
     inkscape:export-filename="/Users/sadique/Work/git/snn-workshop-amld-2022/1. Introduction to SNNs/iaf.png"
     inkscape:export-xdpi="300"
     inkscape:export-ydpi="300" />
  <path
     class="cls-3"
     d="M52.67,48.71a65.57,65.57,0,0,1,9.43-3,69.35,69.35,0,0,1,16.84-1.78c1.29,0,2.8.09,4.48.24"
     transform="translate(-12.49 -1.95)"
     id="path16"
     inkscape:export-filename="/Users/sadique/Work/git/snn-workshop-amld-2022/1. Introduction to SNNs/iaf.png"
     inkscape:export-xdpi="300"
     inkscape:export-ydpi="300" />
  <path
     class="cls-2"
     d="M89.4,45a29.9,29.9,0,0,0-9.09,3.6l2.32-4.49-1.08-4.94A30.4,30.4,0,0,0,89.4,45Z"
     transform="translate(-12.49 -1.95)"
     id="path18"
     inkscape:export-filename="/Users/sadique/Work/git/snn-workshop-amld-2022/1. Introduction to SNNs/iaf.png"
     inkscape:export-xdpi="300"
     inkscape:export-ydpi="300" />
  <path
     class="cls-2"
     d="M126.84,31.1V26.38h.66L129,28.77a12.8,12.8,0,0,1,.85,1.53h0c-.06-.63-.07-1.2-.07-1.94v-2h.57V31.1h-.62l-1.5-2.4a16.64,16.64,0,0,1-.88-1.57h0c0,.6,0,1.17,0,1.95v2Z"
     id="path20"
     transform="translate(-12.49 -1.95)"
     inkscape:export-filename="/Users/sadique/Work/git/snn-workshop-amld-2022/1. Introduction to SNNs/iaf.png"
     inkscape:export-xdpi="300"
     inkscape:export-ydpi="300" />
  <path
     class="cls-2"
     d="M131.76,29.52a1.09,1.09,0,0,0,1.17,1.17,2.25,2.25,0,0,0,.94-.17l.1.44a2.74,2.74,0,0,1-1.13.21,1.57,1.57,0,0,1-1.66-1.71,1.65,1.65,0,0,1,1.59-1.83,1.44,1.44,0,0,1,1.4,1.6c0,.13,0,.22,0,.29Zm1.81-.44a.88.88,0,0,0-.85-1,1,1,0,0,0-.95,1Z"
     id="path22"
     transform="translate(-12.49 -1.95)"
     inkscape:export-filename="/Users/sadique/Work/git/snn-workshop-amld-2022/1. Introduction to SNNs/iaf.png"
     inkscape:export-xdpi="300"
     inkscape:export-ydpi="300" />
  <path
     class="cls-2"
     d="M137.76,30.17c0,.36,0,.66,0,.93h-.54l0-.55h0a1.28,1.28,0,0,1-1.12.63c-.54,0-1.17-.3-1.17-1.49v-2h.61v1.88c0,.64.2,1.08.76,1.08a.89.89,0,0,0,.81-.57.78.78,0,0,0,.06-.31V27.71h.61Z"
     id="path24"
     transform="translate(-12.49 -1.95)"
     inkscape:export-filename="/Users/sadique/Work/git/snn-workshop-amld-2022/1. Introduction to SNNs/iaf.png"
     inkscape:export-xdpi="300"
     inkscape:export-ydpi="300" />
  <path
     class="cls-2"
     d="M138.79,28.77c0-.4,0-.75,0-1.06h.54l0,.66h0a1,1,0,0,1,.93-.74l.18,0v.58l-.21,0a.87.87,0,0,0-.83.8,2.19,2.19,0,0,0,0,.28V31.1h-.6Z"
     id="path26"
     transform="translate(-12.49 -1.95)"
     inkscape:export-filename="/Users/sadique/Work/git/snn-workshop-amld-2022/1. Introduction to SNNs/iaf.png"
     inkscape:export-xdpi="300"
     inkscape:export-ydpi="300" />
  <path
     class="cls-2"
     d="M144.07,29.38a1.66,1.66,0,0,1-1.69,1.8,1.62,1.62,0,0,1-1.62-1.75,1.66,1.66,0,0,1,1.68-1.8A1.61,1.61,0,0,1,144.07,29.38Zm-2.69,0c0,.74.43,1.3,1,1.3s1-.55,1-1.31c0-.58-.29-1.31-1-1.31S141.38,28.77,141.38,29.41Z"
     id="path28"
     transform="translate(-12.49 -1.95)"
     inkscape:export-filename="/Users/sadique/Work/git/snn-workshop-amld-2022/1. Introduction to SNNs/iaf.png"
     inkscape:export-xdpi="300"
     inkscape:export-ydpi="300" />
  <path
     class="cls-2"
     d="M144.85,28.63c0-.35,0-.64,0-.92h.55l0,.56h0a1.26,1.26,0,0,1,1.13-.64c.46,0,1.19.28,1.19,1.45v2h-.61v-2c0-.55-.21-1-.79-1a.89.89,0,0,0-.83.63,1.27,1.27,0,0,0,0,.29v2h-.61Z"
     id="path30"
     transform="translate(-12.49 -1.95)"
     inkscape:export-filename="/Users/sadique/Work/git/snn-workshop-amld-2022/1. Introduction to SNNs/iaf.png"
     inkscape:export-xdpi="300"
     inkscape:export-ydpi="300" />
  <path
     class="cls-2"
     d="M150.13,30.47a1.62,1.62,0,0,0,.81.24c.45,0,.66-.22.66-.5s-.17-.46-.63-.62-.89-.56-.89-1a1,1,0,0,1,1.17-1,1.71,1.71,0,0,1,.83.21l-.16.45a1.31,1.31,0,0,0-.69-.2c-.36,0-.57.21-.57.47s.21.4.65.57c.59.23.89.52.89,1s-.46,1-1.27,1a1.93,1.93,0,0,1-1-.23Z"
     id="path32"
     transform="translate(-12.49 -1.95)"
     inkscape:export-filename="/Users/sadique/Work/git/snn-workshop-amld-2022/1. Introduction to SNNs/iaf.png"
     inkscape:export-xdpi="300"
     inkscape:export-ydpi="300" />
  <path
     class="cls-2"
     d="M153.73,26.74v1h.88v.47h-.88V30c0,.42.12.66.46.66a1.4,1.4,0,0,0,.36-.05l0,.47a1.78,1.78,0,0,1-.55.08.82.82,0,0,1-.66-.26,1.22,1.22,0,0,1-.24-.88V28.18h-.53v-.47h.53V26.9Z"
     id="path34"
     transform="translate(-12.49 -1.95)"
     inkscape:export-filename="/Users/sadique/Work/git/snn-workshop-amld-2022/1. Introduction to SNNs/iaf.png"
     inkscape:export-xdpi="300"
     inkscape:export-ydpi="300" />
  <path
     class="cls-2"
     d="M157.18,31.1l-.05-.43h0a1.25,1.25,0,0,1-1,.51,1,1,0,0,1-1-1c0-.82.73-1.26,2-1.26v-.07a.7.7,0,0,0-.77-.78,1.75,1.75,0,0,0-.89.25l-.14-.41a2.14,2.14,0,0,1,1.12-.3c1,0,1.29.71,1.29,1.39v1.27a5,5,0,0,0,.05.81Zm-.09-1.73c-.67,0-1.43.1-1.43.76a.54.54,0,0,0,.58.59.85.85,0,0,0,.82-.57.63.63,0,0,0,0-.19Z"
     id="path36"
     transform="translate(-12.49 -1.95)"
     inkscape:export-filename="/Users/sadique/Work/git/snn-workshop-amld-2022/1. Introduction to SNNs/iaf.png"
     inkscape:export-xdpi="300"
     inkscape:export-ydpi="300" />
  <path
     class="cls-2"
     d="M159.39,26.74v1h.89v.47h-.89V30c0,.42.12.66.47.66a1.24,1.24,0,0,0,.35-.05l0,.47a1.78,1.78,0,0,1-.55.08.85.85,0,0,1-.66-.26,1.22,1.22,0,0,1-.24-.88V28.18h-.52v-.47h.52V26.9Z"
     id="path38"
     transform="translate(-12.49 -1.95)"
     inkscape:export-filename="/Users/sadique/Work/git/snn-workshop-amld-2022/1. Introduction to SNNs/iaf.png"
     inkscape:export-xdpi="300"
     inkscape:export-ydpi="300" />
  <path
     class="cls-2"
     d="M161.27,29.52a1.08,1.08,0,0,0,1.16,1.17,2.22,2.22,0,0,0,.94-.17l.1.44a2.64,2.64,0,0,1-1.12.21,1.58,1.58,0,0,1-1.67-1.71,1.65,1.65,0,0,1,1.59-1.83,1.44,1.44,0,0,1,1.4,1.6,2,2,0,0,1,0,.29Zm1.81-.44a.89.89,0,0,0-.86-1,1,1,0,0,0-.94,1Z"
     id="path40"
     transform="translate(-12.49 -1.95)"
     inkscape:export-filename="/Users/sadique/Work/git/snn-workshop-amld-2022/1. Introduction to SNNs/iaf.png"
     inkscape:export-xdpi="300"
     inkscape:export-ydpi="300" />
  <path
     class="cls-2"
     d="M166.58,31.1,166,26.38h.59l.35,3c0,.49.08.76.09,1.07h0a10.59,10.59,0,0,1,.52-1.14l1.49-2.95h.65l-2.49,4.72Z"
     id="path42"
     transform="translate(-12.49 -1.95)"
     inkscape:export-filename="/Users/sadique/Work/git/snn-workshop-amld-2022/1. Introduction to SNNs/iaf.png"
     inkscape:export-xdpi="300"
     inkscape:export-ydpi="300" />
  <path
     class="cls-2"
     d="M171.63,26.26A5.65,5.65,0,0,0,170.16,30a4.87,4.87,0,0,0,.38,1.93h-.44a4.17,4.17,0,0,1-.44-1.94,5.59,5.59,0,0,1,1.47-3.73Z"
     id="path44"
     transform="translate(-12.49 -1.95)"
     inkscape:export-filename="/Users/sadique/Work/git/snn-workshop-amld-2022/1. Introduction to SNNs/iaf.png"
     inkscape:export-xdpi="300"
     inkscape:export-ydpi="300" />
  <path
     class="cls-2"
     d="M172.88,26.8l-.17.91h.81l-.09.45h-.81l-.32,1.65a3.43,3.43,0,0,0-.06.55.29.29,0,0,0,.32.32l.27,0,0,.45a1.18,1.18,0,0,1-.45.07.64.64,0,0,1-.72-.66,3.12,3.12,0,0,1,.07-.64l.34-1.72h-.49l.09-.45h.48l.15-.76Z"
     id="path46"
     transform="translate(-12.49 -1.95)"
     inkscape:export-filename="/Users/sadique/Work/git/snn-workshop-amld-2022/1. Introduction to SNNs/iaf.png"
     inkscape:export-xdpi="300"
     inkscape:export-ydpi="300" />
  <path
     class="cls-2"
     d="M173,31.93a5.75,5.75,0,0,0,1.47-3.75,4.65,4.65,0,0,0-.39-1.92h.45a4.1,4.1,0,0,1,.44,1.93,5.59,5.59,0,0,1-1.48,3.74Z"
     id="path48"
     transform="translate(-12.49 -1.95)"
     inkscape:export-filename="/Users/sadique/Work/git/snn-workshop-amld-2022/1. Introduction to SNNs/iaf.png"
     inkscape:export-xdpi="300"
     inkscape:export-ydpi="300" />
  <path
     class="cls-2"
     d="M136.24,58.38a2.21,2.21,0,0,1-2.19,2.49,2.16,2.16,0,0,1-2.12-2.4A2.24,2.24,0,0,1,134.12,56,2.15,2.15,0,0,1,136.24,58.38Zm-3.66.08c0,1,.54,1.91,1.5,1.91s1.52-.89,1.52-2-.49-1.92-1.51-1.92S132.58,57.42,132.58,58.46Z"
     transform="translate(-12.49 -1.95)"
     id="path50"
     inkscape:export-filename="/Users/sadique/Work/git/snn-workshop-amld-2022/1. Introduction to SNNs/iaf.png"
     inkscape:export-xdpi="300"
     inkscape:export-ydpi="300" />
  <path
     class="cls-2"
     d="M139.87,59.87c0,.35,0,.65,0,.92h-.54l0-.55h0a1.28,1.28,0,0,1-1.12.63c-.53,0-1.17-.3-1.17-1.49v-2h.61v1.88c0,.64.2,1.08.76,1.08a.89.89,0,0,0,.81-.56.83.83,0,0,0,.06-.32V57.4h.62Z"
     transform="translate(-12.49 -1.95)"
     id="path52"
     inkscape:export-filename="/Users/sadique/Work/git/snn-workshop-amld-2022/1. Introduction to SNNs/iaf.png"
     inkscape:export-xdpi="300"
     inkscape:export-ydpi="300" />
  <path
     class="cls-2"
     d="M141.63,56.43v1h.88v.47h-.88V59.7c0,.42.12.66.46.66a1.06,1.06,0,0,0,.36,0l0,.47a1.52,1.52,0,0,1-.55.08.86.86,0,0,1-.67-.26,1.27,1.27,0,0,1-.23-.88V57.87h-.53V57.4H141v-.81Z"
     transform="translate(-12.49 -1.95)"
     id="path54"
     inkscape:export-filename="/Users/sadique/Work/git/snn-workshop-amld-2022/1. Introduction to SNNs/iaf.png"
     inkscape:export-xdpi="300"
     inkscape:export-ydpi="300" />
  <path
     class="cls-2"
     d="M143.2,58.51c0-.44,0-.79,0-1.11h.55l0,.58h0a1.34,1.34,0,0,1,1.21-.66,1.54,1.54,0,0,1,1.43,1.73,1.6,1.6,0,0,1-1.54,1.82,1.19,1.19,0,0,1-1-.53h0v1.84h-.61Zm.61.9a1.71,1.71,0,0,0,0,.25.94.94,0,0,0,.93.72c.65,0,1-.53,1-1.31s-.35-1.26-1-1.26a1,1,0,0,0-.93.77.7.7,0,0,0-.05.25Z"
     transform="translate(-12.49 -1.95)"
     id="path56"
     inkscape:export-filename="/Users/sadique/Work/git/snn-workshop-amld-2022/1. Introduction to SNNs/iaf.png"
     inkscape:export-xdpi="300"
     inkscape:export-ydpi="300" />
  <path
     class="cls-2"
     d="M150,59.87c0,.35,0,.65,0,.92h-.55l0-.55h0a1.27,1.27,0,0,1-1.12.63c-.53,0-1.17-.3-1.17-1.49v-2h.62v1.88c0,.64.2,1.08.76,1.08a.89.89,0,0,0,.81-.56.83.83,0,0,0,.06-.32V57.4H150Z"
     transform="translate(-12.49 -1.95)"
     id="path58"
     inkscape:export-filename="/Users/sadique/Work/git/snn-workshop-amld-2022/1. Introduction to SNNs/iaf.png"
     inkscape:export-xdpi="300"
     inkscape:export-ydpi="300" />
  <path
     class="cls-2"
     d="M151.79,56.43v1h.88v.47h-.88V59.7c0,.42.12.66.46.66a1.06,1.06,0,0,0,.36,0l0,.47a1.46,1.46,0,0,1-.54.08.86.86,0,0,1-.67-.26,1.27,1.27,0,0,1-.24-.88V57.87h-.52V57.4h.52v-.81Z"
     transform="translate(-12.49 -1.95)"
     id="path60"
     inkscape:export-filename="/Users/sadique/Work/git/snn-workshop-amld-2022/1. Introduction to SNNs/iaf.png"
     inkscape:export-xdpi="300"
     inkscape:export-ydpi="300" />
  <path
     class="cls-2"
     d="M154.76,60.16a1.58,1.58,0,0,0,.81.25c.45,0,.66-.23.66-.51s-.17-.45-.63-.62-.9-.56-.9-1a1.05,1.05,0,0,1,1.17-1,1.72,1.72,0,0,1,.84.21l-.16.45a1.36,1.36,0,0,0-.69-.19c-.36,0-.57.21-.57.46s.21.4.65.57c.59.23.89.52.89,1s-.47,1-1.27,1a1.9,1.9,0,0,1-.95-.23Z"
     transform="translate(-12.49 -1.95)"
     id="path62"
     inkscape:export-filename="/Users/sadique/Work/git/snn-workshop-amld-2022/1. Introduction to SNNs/iaf.png"
     inkscape:export-xdpi="300"
     inkscape:export-ydpi="300" />
  <path
     class="cls-2"
     d="M157.62,58.51c0-.44,0-.79,0-1.11h.55l0,.58h0a1.35,1.35,0,0,1,1.21-.66,1.54,1.54,0,0,1,1.43,1.73,1.6,1.6,0,0,1-1.54,1.82,1.19,1.19,0,0,1-1-.53h0v1.84h-.61Zm.61.9a1.81,1.81,0,0,0,0,.25,1,1,0,0,0,.93.72c.65,0,1-.53,1-1.31s-.36-1.26-1-1.26a1,1,0,0,0-.93.77,1,1,0,0,0,0,.25Z"
     transform="translate(-12.49 -1.95)"
     id="path64"
     inkscape:export-filename="/Users/sadique/Work/git/snn-workshop-amld-2022/1. Introduction to SNNs/iaf.png"
     inkscape:export-xdpi="300"
     inkscape:export-ydpi="300" />
  <path
     class="cls-2"
     d="M162.29,56.45a.39.39,0,0,1-.77,0,.38.38,0,0,1,.39-.39A.37.37,0,0,1,162.29,56.45Zm-.69,4.34V57.4h.62v3.39Z"
     transform="translate(-12.49 -1.95)"
     id="path66"
     inkscape:export-filename="/Users/sadique/Work/git/snn-workshop-amld-2022/1. Introduction to SNNs/iaf.png"
     inkscape:export-xdpi="300"
     inkscape:export-ydpi="300" />
  <path
     class="cls-2"
     d="M163.85,59h0c.08-.12.2-.27.3-.39l1-1.17h.74l-1.31,1.39,1.49,2h-.75l-1.17-1.62-.31.35v1.27h-.61v-5h.61Z"
     transform="translate(-12.49 -1.95)"
     id="path68"
     inkscape:export-filename="/Users/sadique/Work/git/snn-workshop-amld-2022/1. Introduction to SNNs/iaf.png"
     inkscape:export-xdpi="300"
     inkscape:export-ydpi="300" />
  <path
     class="cls-2"
     d="M166.86,59.21A1.09,1.09,0,0,0,168,60.38a2.17,2.17,0,0,0,.93-.17l.11.44a2.74,2.74,0,0,1-1.13.21,1.57,1.57,0,0,1-1.66-1.71,1.65,1.65,0,0,1,1.59-1.83,1.44,1.44,0,0,1,1.4,1.6,1.72,1.72,0,0,1,0,.29Zm1.81-.44a.88.88,0,0,0-.85-1,1,1,0,0,0-.95,1Z"
     transform="translate(-12.49 -1.95)"
     id="path70"
     inkscape:export-filename="/Users/sadique/Work/git/snn-workshop-amld-2022/1. Introduction to SNNs/iaf.png"
     inkscape:export-xdpi="300"
     inkscape:export-ydpi="300" />
  <path
     class="cls-2"
     d="M169.94,60.16a1.62,1.62,0,0,0,.82.25c.44,0,.65-.23.65-.51s-.17-.45-.63-.62c-.61-.22-.89-.56-.89-1a1,1,0,0,1,1.17-1,1.71,1.71,0,0,1,.83.21l-.15.45a1.4,1.4,0,0,0-.7-.19c-.36,0-.56.21-.56.46s.2.4.64.57c.59.23.89.52.89,1s-.46,1-1.27,1a1.93,1.93,0,0,1-1-.23Z"
     transform="translate(-12.49 -1.95)"
     id="path72"
     inkscape:export-filename="/Users/sadique/Work/git/snn-workshop-amld-2022/1. Introduction to SNNs/iaf.png"
     inkscape:export-xdpi="300"
     inkscape:export-ydpi="300" />
  <path
     class="cls-2"
     d="M174,60.2a1.49,1.49,0,0,0,.72.21.58.58,0,0,0,.65-.55c0-.27-.12-.43-.47-.62a1,1,0,0,1-.61-.87,1.12,1.12,0,0,1,1.23-1,1.42,1.42,0,0,1,.7.17l-.16.44a1.2,1.2,0,0,0-.59-.15.54.54,0,0,0-.6.51c0,.25.16.4.46.57a1.06,1.06,0,0,1,.64.89,1.15,1.15,0,0,1-1.3,1.11,1.5,1.5,0,0,1-.84-.23Z"
     transform="translate(-12.49 -1.95)"
     id="path74"
     inkscape:export-filename="/Users/sadique/Work/git/snn-workshop-amld-2022/1. Introduction to SNNs/iaf.png"
     inkscape:export-xdpi="300"
     inkscape:export-ydpi="300" />
  <path
     class="cls-2"
     d="M178.83,56a5.7,5.7,0,0,0-1.47,3.74,4.72,4.72,0,0,0,.39,1.93h-.44a4.05,4.05,0,0,1-.45-1.94A5.54,5.54,0,0,1,178.34,56Z"
     transform="translate(-12.49 -1.95)"
     id="path76"
     inkscape:export-filename="/Users/sadique/Work/git/snn-workshop-amld-2022/1. Introduction to SNNs/iaf.png"
     inkscape:export-xdpi="300"
     inkscape:export-ydpi="300" />
  <path
     class="cls-2"
     d="M180.09,56.49l-.18.91h.81l-.09.46h-.81l-.32,1.64a3.55,3.55,0,0,0-.06.55.29.29,0,0,0,.32.32l.28,0,0,.45a1.18,1.18,0,0,1-.45.07.63.63,0,0,1-.71-.66,3.12,3.12,0,0,1,.07-.64l.33-1.71h-.49l.09-.46h.49l.14-.76Z"
     transform="translate(-12.49 -1.95)"
     id="path78"
     inkscape:export-filename="/Users/sadique/Work/git/snn-workshop-amld-2022/1. Introduction to SNNs/iaf.png"
     inkscape:export-xdpi="300"
     inkscape:export-ydpi="300" />
  <path
     class="cls-2"
     d="M180.24,61.62a5.75,5.75,0,0,0,1.47-3.75,4.8,4.8,0,0,0-.38-1.92h.44a4.1,4.1,0,0,1,.44,1.93,5.64,5.64,0,0,1-1.47,3.74Z"
     transform="translate(-12.49 -1.95)"
     id="path80"
     inkscape:export-filename="/Users/sadique/Work/git/snn-workshop-amld-2022/1. Introduction to SNNs/iaf.png"
     inkscape:export-xdpi="300"
     inkscape:export-ydpi="300" />
  <path
     class="cls-4"
     d="M102.77,35l.2-.45"
     transform="translate(-12.49 -1.95)"
     id="path82"
     inkscape:export-filename="/Users/sadique/Work/git/snn-workshop-amld-2022/1. Introduction to SNNs/iaf.png"
     inkscape:export-xdpi="300"
     inkscape:export-ydpi="300" />
  <path
     class="cls-5"
     d="M103.41,33.68a15.58,15.58,0,0,1,6.42-6.5c5.68-3,11.38-1.29,13.6-.4"
     transform="translate(-12.49 -1.95)"
     id="path84"
     inkscape:export-filename="/Users/sadique/Work/git/snn-workshop-amld-2022/1. Introduction to SNNs/iaf.png"
     inkscape:export-xdpi="300"
     inkscape:export-ydpi="300" />
  <path
     class="cls-4"
     d="M123.89,27c.22.09.37.17.45.21"
     transform="translate(-12.49 -1.95)"
     id="path86"
     inkscape:export-filename="/Users/sadique/Work/git/snn-workshop-amld-2022/1. Introduction to SNNs/iaf.png"
     inkscape:export-xdpi="300"
     inkscape:export-ydpi="300" />
  <path
     class="cls-2"
     d="M13.1,45.91v4.72h-.61V45.91Z"
     transform="translate(-12.49 -1.95)"
     id="path152"
     inkscape:export-filename="/Users/sadique/Work/git/snn-workshop-amld-2022/1. Introduction to SNNs/iaf.png"
     inkscape:export-xdpi="300"
     inkscape:export-ydpi="300" />
  <path
     class="cls-2"
     d="M14.21,48.15c0-.35,0-.63,0-.91h.55l0,.56h0a1.24,1.24,0,0,1,1.12-.64c.47,0,1.2.28,1.2,1.44v2h-.62v-2c0-.54-.2-1-.78-1a.88.88,0,0,0-.83.63.85.85,0,0,0,0,.29v2h-.62Z"
     transform="translate(-12.49 -1.95)"
     id="path154"
     inkscape:export-filename="/Users/sadique/Work/git/snn-workshop-amld-2022/1. Introduction to SNNs/iaf.png"
     inkscape:export-xdpi="300"
     inkscape:export-ydpi="300" />
  <path
     class="cls-2"
     d="M18.1,48.34c0-.43,0-.78,0-1.1h.55l0,.58h0a1.32,1.32,0,0,1,1.21-.66,1.53,1.53,0,0,1,1.43,1.72,1.6,1.6,0,0,1-1.54,1.82,1.17,1.17,0,0,1-1-.53h0V52h-.6Zm.6.91a1.9,1.9,0,0,0,0,.25,1,1,0,0,0,.93.72c.65,0,1-.53,1-1.31s-.36-1.26-1-1.26a1,1,0,0,0-.93.76,1.09,1.09,0,0,0-.05.26Z"
     transform="translate(-12.49 -1.95)"
     id="path156"
     inkscape:export-filename="/Users/sadique/Work/git/snn-workshop-amld-2022/1. Introduction to SNNs/iaf.png"
     inkscape:export-xdpi="300"
     inkscape:export-ydpi="300" />
  <path
     class="cls-2"
     d="M24.91,49.7q0,.52,0,.93H24.4l0-.56h0a1.26,1.26,0,0,1-1.12.63c-.54,0-1.17-.29-1.17-1.48v-2h.61v1.87c0,.65.2,1.08.76,1.08a.88.88,0,0,0,.81-.56.78.78,0,0,0,.06-.31V47.24h.61Z"
     transform="translate(-12.49 -1.95)"
     id="path158"
     inkscape:export-filename="/Users/sadique/Work/git/snn-workshop-amld-2022/1. Introduction to SNNs/iaf.png"
     inkscape:export-xdpi="300"
     inkscape:export-ydpi="300" />
  <path
     class="cls-2"
     d="M26.68,46.26v1h.88v.47h-.88v1.82c0,.42.12.66.46.66a1.49,1.49,0,0,0,.36,0l0,.46a1.39,1.39,0,0,1-.54.09.86.86,0,0,1-.67-.26,1.3,1.3,0,0,1-.23-.89V47.71h-.53v-.47h.53v-.82Z"
     transform="translate(-12.49 -1.95)"
     id="path160"
     inkscape:export-filename="/Users/sadique/Work/git/snn-workshop-amld-2022/1. Introduction to SNNs/iaf.png"
     inkscape:export-xdpi="300"
     inkscape:export-ydpi="300" />
  <path
     class="cls-2"
     d="M29.65,50a1.62,1.62,0,0,0,.81.24c.45,0,.66-.22.66-.5s-.17-.46-.63-.63-.89-.55-.89-1a1,1,0,0,1,1.17-1,1.71,1.71,0,0,1,.83.21l-.16.45a1.23,1.23,0,0,0-.69-.2c-.36,0-.57.21-.57.46s.21.41.65.58c.59.22.89.52.89,1s-.46,1-1.27,1a1.93,1.93,0,0,1-.95-.23Z"
     transform="translate(-12.49 -1.95)"
     id="path162"
     inkscape:export-filename="/Users/sadique/Work/git/snn-workshop-amld-2022/1. Introduction to SNNs/iaf.png"
     inkscape:export-xdpi="300"
     inkscape:export-ydpi="300" />
  <path
     class="cls-2"
     d="M32.51,48.34c0-.43,0-.78,0-1.1H33l0,.58h0a1.31,1.31,0,0,1,1.2-.66,1.54,1.54,0,0,1,1.44,1.72,1.61,1.61,0,0,1-1.55,1.82,1.18,1.18,0,0,1-1-.53h0V52h-.61Zm.61.91a2,2,0,0,0,0,.25,1,1,0,0,0,.93.72c.65,0,1-.53,1-1.31s-.36-1.26-1-1.26a1,1,0,0,0-.93.76,1.09,1.09,0,0,0,0,.26Z"
     transform="translate(-12.49 -1.95)"
     id="path164"
     inkscape:export-filename="/Users/sadique/Work/git/snn-workshop-amld-2022/1. Introduction to SNNs/iaf.png"
     inkscape:export-xdpi="300"
     inkscape:export-ydpi="300" />
  <path
     class="cls-2"
     d="M37.18,46.28a.39.39,0,0,1-.77,0,.38.38,0,0,1,.39-.38A.37.37,0,0,1,37.18,46.28Zm-.69,4.35V47.24h.62v3.39Z"
     transform="translate(-12.49 -1.95)"
     id="path166"
     inkscape:export-filename="/Users/sadique/Work/git/snn-workshop-amld-2022/1. Introduction to SNNs/iaf.png"
     inkscape:export-xdpi="300"
     inkscape:export-ydpi="300" />
  <path
     class="cls-2"
     d="M38.74,48.79h0l.3-.38,1-1.17h.74l-1.31,1.39,1.49,2h-.75L39.05,49l-.31.35v1.28h-.61v-5h.61Z"
     transform="translate(-12.49 -1.95)"
     id="path168"
     inkscape:export-filename="/Users/sadique/Work/git/snn-workshop-amld-2022/1. Introduction to SNNs/iaf.png"
     inkscape:export-xdpi="300"
     inkscape:export-ydpi="300" />
  <path
     class="cls-2"
     d="M41.75,49a1.09,1.09,0,0,0,1.17,1.18,2.42,2.42,0,0,0,.94-.17l.1.44a2.91,2.91,0,0,1-1.13.21A1.57,1.57,0,0,1,41.17,49a1.65,1.65,0,0,1,1.59-1.83,1.44,1.44,0,0,1,1.4,1.6c0,.12,0,.22,0,.28Zm1.81-.44a.87.87,0,0,0-.85-1,1,1,0,0,0-1,1Z"
     transform="translate(-12.49 -1.95)"
     id="path170"
     inkscape:export-filename="/Users/sadique/Work/git/snn-workshop-amld-2022/1. Introduction to SNNs/iaf.png"
     inkscape:export-xdpi="300"
     inkscape:export-ydpi="300" />
  <path
     class="cls-2"
     d="M44.83,50a1.65,1.65,0,0,0,.82.24c.45,0,.66-.22.66-.5s-.18-.46-.64-.63-.89-.55-.89-1a1,1,0,0,1,1.17-1,1.71,1.71,0,0,1,.83.21l-.15.45a1.3,1.3,0,0,0-.7-.2c-.36,0-.56.21-.56.46s.2.41.64.58c.59.22.89.52.89,1s-.46,1-1.27,1a1.93,1.93,0,0,1-1-.23Z"
     transform="translate(-12.49 -1.95)"
     id="path172"
     inkscape:export-filename="/Users/sadique/Work/git/snn-workshop-amld-2022/1. Introduction to SNNs/iaf.png"
     inkscape:export-xdpi="300"
     inkscape:export-ydpi="300" />
  <path
     class="cls-2"
     d="M43.47,59.29V64h-.61V59.29Z"
     transform="translate(-12.49 -1.95)"
     id="path174"
     inkscape:export-filename="/Users/sadique/Work/git/snn-workshop-amld-2022/1. Introduction to SNNs/iaf.png"
     inkscape:export-xdpi="300"
     inkscape:export-ydpi="300" />
  <path
     class="cls-2"
     d="M44.58,61.54c0-.35,0-.63,0-.91h.54l0,.56h0a1.24,1.24,0,0,1,1.12-.64c.47,0,1.2.28,1.2,1.44v2h-.62v-2c0-.55-.2-1-.78-1a.88.88,0,0,0-.83.63.85.85,0,0,0,0,.29v2h-.62Z"
     transform="translate(-12.49 -1.95)"
     id="path176"
     inkscape:export-filename="/Users/sadique/Work/git/snn-workshop-amld-2022/1. Introduction to SNNs/iaf.png"
     inkscape:export-xdpi="300"
     inkscape:export-ydpi="300" />
  <path
     class="cls-2"
     d="M48.47,61.73c0-.43,0-.78,0-1.1H49l0,.58h0a1.31,1.31,0,0,1,1.2-.66,1.54,1.54,0,0,1,1.44,1.72,1.61,1.61,0,0,1-1.54,1.82,1.2,1.2,0,0,1-1-.53h0V65.4h-.61Zm.61.91a1,1,0,0,0,0,.25.94.94,0,0,0,.92.72c.65,0,1-.53,1-1.31S50.7,61,50.05,61a1,1,0,0,0-.93.76,1.09,1.09,0,0,0,0,.25Z"
     transform="translate(-12.49 -1.95)"
     id="path178"
     inkscape:export-filename="/Users/sadique/Work/git/snn-workshop-amld-2022/1. Introduction to SNNs/iaf.png"
     inkscape:export-xdpi="300"
     inkscape:export-ydpi="300" />
  <path
     class="cls-2"
     d="M55.29,63.09q0,.52,0,.93h-.55l0-.56h0a1.26,1.26,0,0,1-1.12.63c-.53,0-1.17-.29-1.17-1.48v-2h.62V62.5c0,.65.19,1.08.75,1.08a.91.91,0,0,0,.82-.56,1,1,0,0,0,.05-.31V60.63h.62Z"
     transform="translate(-12.49 -1.95)"
     id="path180"
     inkscape:export-filename="/Users/sadique/Work/git/snn-workshop-amld-2022/1. Introduction to SNNs/iaf.png"
     inkscape:export-xdpi="300"
     inkscape:export-ydpi="300" />
  <path
     class="cls-2"
     d="M57.05,59.65v1h.88v.46h-.88v1.83c0,.42.12.66.46.66a1.49,1.49,0,0,0,.36,0l0,.46a1.49,1.49,0,0,1-.55.09.86.86,0,0,1-.66-.26,1.26,1.26,0,0,1-.24-.89V61.09h-.53v-.46h.53v-.82Z"
     transform="translate(-12.49 -1.95)"
     id="path182"
     inkscape:export-filename="/Users/sadique/Work/git/snn-workshop-amld-2022/1. Introduction to SNNs/iaf.png"
     inkscape:export-xdpi="300"
     inkscape:export-ydpi="300" />
  <path
     class="cls-2"
     d="M60.35,60.63l.45,1.72c.1.38.19.73.25,1.08h0c.07-.35.19-.71.3-1.07l.55-1.73h.52L63,62.32a10.41,10.41,0,0,1,.3,1.11h0a7.52,7.52,0,0,1,.26-1.1l.48-1.7h.61L63.56,64H63l-.51-1.62a10.24,10.24,0,0,1-.3-1.12h0a8.68,8.68,0,0,1-.31,1.12L61.31,64h-.56l-1-3.39Z"
     transform="translate(-12.49 -1.95)"
     id="path184"
     inkscape:export-filename="/Users/sadique/Work/git/snn-workshop-amld-2022/1. Introduction to SNNs/iaf.png"
     inkscape:export-xdpi="300"
     inkscape:export-ydpi="300" />
  <path
     class="cls-2"
     d="M65.53,62.43a1.09,1.09,0,0,0,1.17,1.18,2.23,2.23,0,0,0,.94-.18l.1.45a2.91,2.91,0,0,1-1.13.21A1.57,1.57,0,0,1,65,62.38a1.64,1.64,0,0,1,1.59-1.83,1.44,1.44,0,0,1,1.4,1.6c0,.12,0,.22,0,.28ZM67.34,62a.87.87,0,0,0-.85-1,1,1,0,0,0-.95,1Z"
     transform="translate(-12.49 -1.95)"
     id="path186"
     inkscape:export-filename="/Users/sadique/Work/git/snn-workshop-amld-2022/1. Introduction to SNNs/iaf.png"
     inkscape:export-xdpi="300"
     inkscape:export-ydpi="300" />
  <path
     class="cls-2"
     d="M69.38,59.67a.36.36,0,0,1-.39.38.37.37,0,0,1-.37-.38.38.38,0,0,1,.39-.38A.36.36,0,0,1,69.38,59.67ZM68.7,64V60.63h.61V64Z"
     transform="translate(-12.49 -1.95)"
     id="path188"
     inkscape:export-filename="/Users/sadique/Work/git/snn-workshop-amld-2022/1. Introduction to SNNs/iaf.png"
     inkscape:export-xdpi="300"
     inkscape:export-ydpi="300" />
  <path
     class="cls-2"
     d="M73.26,60.63c0,.24,0,.51,0,.93v2a1.93,1.93,0,0,1-.48,1.54,1.81,1.81,0,0,1-1.24.41,2.19,2.19,0,0,1-1.12-.28l.15-.47a1.88,1.88,0,0,0,1,.27c.63,0,1.1-.33,1.1-1.19v-.38h0a1.2,1.2,0,0,1-1.08.57,1.51,1.51,0,0,1-1.44-1.65,1.63,1.63,0,0,1,1.53-1.8,1.13,1.13,0,0,1,1.06.59h0l0-.51ZM72.62,62a.86.86,0,0,0,0-.28.89.89,0,0,0-.86-.65c-.59,0-1,.5-1,1.28s.34,1.22,1,1.22a.9.9,0,0,0,.85-.63.91.91,0,0,0,.05-.33Z"
     transform="translate(-12.49 -1.95)"
     id="path190"
     inkscape:export-filename="/Users/sadique/Work/git/snn-workshop-amld-2022/1. Introduction to SNNs/iaf.png"
     inkscape:export-xdpi="300"
     inkscape:export-ydpi="300" />
  <path
     class="cls-2"
     d="M74.25,59h.62v2.12h0a1.16,1.16,0,0,1,.44-.44,1.32,1.32,0,0,1,.63-.17c.46,0,1.19.28,1.19,1.45v2h-.62V62.07c0-.55-.2-1-.79-1a.87.87,0,0,0-.82.62.64.64,0,0,0,0,.29v2h-.62Z"
     transform="translate(-12.49 -1.95)"
     id="path192"
     inkscape:export-filename="/Users/sadique/Work/git/snn-workshop-amld-2022/1. Introduction to SNNs/iaf.png"
     inkscape:export-xdpi="300"
     inkscape:export-ydpi="300" />
  <path
     class="cls-2"
     d="M78.85,59.65v1h.88v.46h-.88v1.83c0,.42.12.66.46.66a1.49,1.49,0,0,0,.36,0l0,.46a1.49,1.49,0,0,1-.55.09.89.89,0,0,1-.67-.26,1.32,1.32,0,0,1-.23-.89V61.09h-.53v-.46h.53v-.82Z"
     transform="translate(-12.49 -1.95)"
     id="path194"
     inkscape:export-filename="/Users/sadique/Work/git/snn-workshop-amld-2022/1. Introduction to SNNs/iaf.png"
     inkscape:export-xdpi="300"
     inkscape:export-ydpi="300" />
  <path
     class="cls-2"
     d="M80.34,63.38a1.58,1.58,0,0,0,.81.25c.45,0,.66-.22.66-.5s-.17-.46-.63-.63c-.61-.21-.9-.55-.9-1a1,1,0,0,1,1.17-1,1.72,1.72,0,0,1,.84.21l-.16.45a1.26,1.26,0,0,0-.69-.2c-.37,0-.57.21-.57.46s.2.41.65.58.89.52.89,1-.47,1-1.27,1a2,2,0,0,1-1-.24Z"
     transform="translate(-12.49 -1.95)"
     id="path196"
     inkscape:export-filename="/Users/sadique/Work/git/snn-workshop-amld-2022/1. Introduction to SNNs/iaf.png"
     inkscape:export-xdpi="300"
     inkscape:export-ydpi="300" />
  <path
     class="cls-2"
     d="M84.87,64l-.23-4.73h.59l.09,2.83c0,.61,0,.94,0,1.24h0a11.78,11.78,0,0,1,.49-1.2l1.3-2.87h.62l.1,2.72c0,.61,0,1,0,1.33h0c.14-.4.28-.78.46-1.21l1.27-2.84h.61L88,64h-.61l-.13-2.69a12.31,12.31,0,0,1,0-1.36h0c-.16.45-.29.82-.48,1.24L85.49,64Z"
     transform="translate(-12.49 -1.95)"
     id="path198"
     inkscape:export-filename="/Users/sadique/Work/git/snn-workshop-amld-2022/1. Introduction to SNNs/iaf.png"
     inkscape:export-xdpi="300"
     inkscape:export-ydpi="300" />
  <line
     class="cls-3"
     x1="101.06"
     y1="46.18"
     x2="124.32"
     y2="46.04"
     id="line204"
     inkscape:export-filename="/Users/sadique/Work/git/snn-workshop-amld-2022/1. Introduction to SNNs/iaf.png"
     inkscape:export-xdpi="300"
     inkscape:export-ydpi="300" />
  <path
     class="cls-2"
     d="M142.85,48a30,30,0,0,0-8.52,4.81L136,48l-1.75-4.74A30.11,30.11,0,0,0,142.85,48Z"
     transform="translate(-12.49 -1.95)"
     id="path206"
     inkscape:export-filename="/Users/sadique/Work/git/snn-workshop-amld-2022/1. Introduction to SNNs/iaf.png"
     inkscape:export-xdpi="300"
     inkscape:export-ydpi="300" />
  <line
     class="cls-7"
     x1="9.15"
     y1="31.2"
     x2="9.05"
     y2="41.51"
     id="line213"
     inkscape:export-filename="/Users/sadique/Work/git/snn-workshop-amld-2022/1. Introduction to SNNs/iaf.png"
     inkscape:export-xdpi="300"
     inkscape:export-ydpi="300" />
  <line
     class="cls-7"
     x1="4.13"
     y1="31.15"
     x2="4.03"
     y2="41.46"
     id="line215"
     inkscape:export-filename="/Users/sadique/Work/git/snn-workshop-amld-2022/1. Introduction to SNNs/iaf.png"
     inkscape:export-xdpi="300"
     inkscape:export-ydpi="300" />
  <line
     class="cls-7"
     x1="30.12"
     y1="31.4"
     x2="30.02"
     y2="41.71"
     id="line217"
     inkscape:export-filename="/Users/sadique/Work/git/snn-workshop-amld-2022/1. Introduction to SNNs/iaf.png"
     inkscape:export-xdpi="300"
     inkscape:export-ydpi="300" />
  <line
     class="cls-7"
     x1="142.84"
     y1="40.52"
     x2="142.74"
     y2="50.82"
     id="line219"
     inkscape:export-filename="/Users/sadique/Work/git/snn-workshop-amld-2022/1. Introduction to SNNs/iaf.png"
     inkscape:export-xdpi="300"
     inkscape:export-ydpi="300" />
  <line
     class="cls-7"
     x1="154.45"
     y1="40.52"
     x2="154.35"
     y2="50.82"
     id="line221"
     inkscape:export-filename="/Users/sadique/Work/git/snn-workshop-amld-2022/1. Introduction to SNNs/iaf.png"
     inkscape:export-xdpi="300"
     inkscape:export-ydpi="300" />
  <line
     class="cls-7"
     x1="137.82"
     y1="40.47"
     x2="137.72"
     y2="50.78"
     id="line223"
     inkscape:export-filename="/Users/sadique/Work/git/snn-workshop-amld-2022/1. Introduction to SNNs/iaf.png"
     inkscape:export-xdpi="300"
     inkscape:export-ydpi="300" />
  <line
     class="cls-7"
     x1="163.82"
     y1="40.72"
     x2="163.72"
     y2="51.03"
     id="line225"
     inkscape:export-filename="/Users/sadique/Work/git/snn-workshop-amld-2022/1. Introduction to SNNs/iaf.png"
     inkscape:export-xdpi="300"
     inkscape:export-ydpi="300" />
  <g
     id="line2d_17"
     data-name="line2d 17"
     inkscape:export-filename="/Users/sadique/Work/git/snn-workshop-amld-2022/1. Introduction to SNNs/iaf.png"
     inkscape:export-xdpi="300"
     inkscape:export-ydpi="300">
    <path
       style="fill:none;stroke:#800080;stroke-width:1px;stroke-linecap:butt;stroke-linejoin:miter;stroke-opacity:1"
       d="m 115,20 h 10 v -5 h 5 v -5 h 15 V 0 20 h 10 v -5 h 10 v 0"
       id="path1874" />
  </g>
  <path
     class="cls-9"
     d="M62.75,56.18c.82-3.67,3.08-6.83,5.28-9.87"
     transform="translate(-12.49 -1.95)"
     id="path230"
     inkscape:export-filename="/Users/sadique/Work/git/snn-workshop-amld-2022/1. Introduction to SNNs/iaf.png"
     inkscape:export-xdpi="300"
     inkscape:export-ydpi="300" />
  <metadata
     id="metadata253">
    <rdf:RDF>
      <cc:Work
         rdf:about="">
        <dc:title>LIF-neuron</dc:title>
      </cc:Work>
    </rdf:RDF>
  </metadata>
</svg>
